<?xml version="1.0" encoding="UTF-8" standalone="no"?>
<!DOCTYPE svg PUBLIC "-//W3C//DTD SVG 1.0//EN" "http://www.w3.org/TR/2001/PR-SVG-20010719/DTD/svg10.dtd">
<svg width="28cm" height="19cm" viewBox="539 202 542 377" xmlns="http://www.w3.org/2000/svg" xmlns:xlink="http://www.w3.org/1999/xlink">
  <g>
    <rect style="fill: #ffffff" x="700" y="260" width="140" height="40"/>
    <rect style="fill: none; fill-opacity:0; stroke-width: 2; stroke: #000000" x="700" y="260" width="140" height="40"/>
    <text font-size="12.8" style="fill: #000000;text-anchor:middle;font-family:sans-serif;font-style:normal;font-weight:normal" x="770" y="283.9">
      <tspan x="770" y="283.9">Syntaxtree</tspan>
    </text>
  </g>
  <g>
    <rect style="fill: #ffffff" x="540" y="400" width="140" height="40"/>
    <rect style="fill: none; fill-opacity:0; stroke-width: 2; stroke: #000000" x="540" y="400" width="140" height="40"/>
    <text font-size="12.8" style="fill: #000000;text-anchor:middle;font-family:sans-serif;font-style:normal;font-weight:normal" x="610" y="423.9">
      <tspan x="610" y="423.9">Block Language</tspan>
    </text>
  </g>
  <g>
    <rect style="fill: #ffffff" x="620" y="482" width="160" height="38"/>
    <rect style="fill: none; fill-opacity:0; stroke-width: 2; stroke: #000000" x="620" y="482" width="160" height="38"/>
    <text font-size="12.8" style="fill: #000000;text-anchor:middle;font-family:sans-serif;font-style:normal;font-weight:normal" x="700" y="504.9">
      <tspan x="700" y="504.9">Programming Block</tspan>
    </text>
  </g>
  <g>
    <rect style="fill: #ffffff" x="620" y="540" width="160" height="38"/>
    <rect style="fill: none; fill-opacity:0; stroke-width: 2; stroke: #000000" x="620" y="540" width="160" height="38"/>
    <text font-size="12.8" style="fill: #000000;text-anchor:middle;font-family:sans-serif;font-style:normal;font-weight:normal" x="700" y="562.9">
      <tspan x="700" y="562.9">Sidebar Block</tspan>
    </text>
  </g>
  <g>
    <rect style="fill: #ffffff" x="840" y="400" width="180" height="40"/>
    <rect style="fill: none; fill-opacity:0; stroke-width: 2; stroke: #000000" x="840" y="400" width="180" height="40"/>
    <text font-size="12.8" style="fill: #000000;text-anchor:middle;font-family:sans-serif;font-style:normal;font-weight:normal" x="930" y="423.9">
      <tspan x="930" y="423.9">Programming Language</tspan>
    </text>
  </g>
  <g>
    <rect style="fill: #ffffff" x="920" y="480" width="160" height="38"/>
    <rect style="fill: none; fill-opacity:0; stroke-width: 2; stroke: #000000" x="920" y="480" width="160" height="38"/>
    <text font-size="12.8" style="fill: #000000;text-anchor:middle;font-family:sans-serif;font-style:normal;font-weight:normal" x="1000" y="502.9">
      <tspan x="1000" y="502.9">Validator</tspan>
    </text>
  </g>
  <g>
    <rect style="fill: #ffffff" x="920" y="540" width="160" height="38"/>
    <rect style="fill: none; fill-opacity:0; stroke-width: 2; stroke: #000000" x="920" y="540" width="160" height="38"/>
    <text font-size="12.8" style="fill: #000000;text-anchor:middle;font-family:sans-serif;font-style:normal;font-weight:normal" x="1000" y="562.9">
      <tspan x="1000" y="562.9">Code Generator</tspan>
    </text>
  </g>
  <g>
    <line style="fill: none; fill-opacity:0; stroke-width: 2; stroke: #000000" x1="727.397" y1="306.082" x2="617.603" y2="393.918"/>
    <polygon style="fill: #000000" points="733.254,301.397 728.569,311.548 727.397,306.082 722.322,303.739 "/>
    <polygon style="fill: none; fill-opacity:0; stroke-width: 2; stroke: #000000" points="733.254,301.397 728.569,311.548 727.397,306.082 722.322,303.739 "/>
    <polygon style="fill: #000000" points="611.746,398.603 616.431,388.452 617.603,393.918 622.678,396.261 "/>
    <polygon style="fill: none; fill-opacity:0; stroke-width: 2; stroke: #000000" points="611.746,398.603 616.431,388.452 617.603,393.918 622.678,396.261 "/>
  </g>
  <text font-size="12.8" style="fill: #000000;text-anchor:start;font-family:sans-serif;font-style:normal;font-weight:normal" x="599.405" y="324.162">
    <tspan x="599.405" y="324.162">       Display &amp;</tspan>
    <tspan x="599.405" y="340.162">Modification      </tspan>
  </text>
  <g>
    <line style="fill: none; fill-opacity:0; stroke-width: 2; stroke: #000000" x1="680" y1="420" x2="830.264" y2="420"/>
    <polygon style="fill: #000000" points="837.764,420 827.764,425 830.264,420 827.764,415 "/>
    <polygon style="fill: none; fill-opacity:0; stroke-width: 2; stroke: #000000" points="837.764,420 827.764,425 830.264,420 827.764,415 "/>
  </g>
  <g>
    <line style="fill: none; fill-opacity:0; stroke-width: 2; stroke: #000000" x1="805" y1="300" x2="901.111" y2="392.266"/>
    <polygon style="fill: #000000" points="906.521,397.46 895.845,394.142 901.111,392.266 902.77,386.928 "/>
    <polygon style="fill: none; fill-opacity:0; stroke-width: 2; stroke: #000000" points="906.521,397.46 895.845,394.142 901.111,392.266 902.77,386.928 "/>
  </g>
  <text font-size="12.8" style="fill: #000000;text-anchor:start;font-family:sans-serif;font-style:normal;font-weight:normal" x="860" y="340">
    <tspan x="860" y="340">Compiled using</tspan>
  </text>
  <text font-size="12.8" style="fill: #000000;text-anchor:start;font-family:sans-serif;font-style:normal;font-weight:normal" x="736" y="416">
    <tspan x="736" y="416">allows</tspan>
  </text>
  <polyline style="fill: none; fill-opacity:0; stroke-width: 2; stroke: #000000" points="575,440 575,501 620,501 "/>
  <polyline style="fill: none; fill-opacity:0; stroke-width: 2; stroke: #000000" points="575,440 575,559 620,559 "/>
  <polyline style="fill: none; fill-opacity:0; stroke-width: 2; stroke: #000000" points="885,440 885,499 920,499 "/>
  <polyline style="fill: none; fill-opacity:0; stroke-width: 2; stroke: #000000" points="885,440 885,559 920,559 "/>
  <g>
    <rect style="fill: #ffffff" x="700" y="203.406" width="140" height="40"/>
    <rect style="fill: none; fill-opacity:0; stroke-width: 2; stroke: #000000" x="700" y="203.406" width="140" height="40"/>
    <text font-size="12.8" style="fill: #000000;text-anchor:middle;font-family:sans-serif;font-style:normal;font-weight:normal" x="770" y="227.306">
      <tspan x="770" y="227.306">Grammar</tspan>
    </text>
  </g>
  <text font-size="12.7998" style="fill: #000000;text-anchor:start;font-family:sans-serif;font-style:normal;font-weight:normal" x="770" y="223.406">
    <tspan x="770" y="223.406"></tspan>
  </text>
  <text font-size="12.7998" style="fill: #000000;text-anchor:start;font-family:sans-serif;font-style:normal;font-weight:normal" x="920" y="340">
    <tspan x="920" y="340"></tspan>
  </text>
  <g>
    <polyline style="fill: none; fill-opacity:0; stroke-width: 2; stroke-dasharray: 4; stroke: #000000" points="700,223.406 575,223.406 575,390.264 "/>
    <polygon style="fill: #000000" points="575,397.764 570,387.764 575,390.264 580,387.764 "/>
    <polygon style="fill: none; fill-opacity:0; stroke-width: 2; stroke: #000000" points="575,397.764 570,387.764 575,390.264 580,387.764 "/>
  </g>
  <text font-size="12.7998" style="fill: #000000;text-anchor:start;font-family:sans-serif;font-style:normal;font-weight:normal" x="600" y="220">
    <tspan x="600" y="220">Generates</tspan>
  </text>
  <text font-size="12.7998" style="fill: #000000;text-anchor:start;font-family:sans-serif;font-style:normal;font-weight:normal" x="880" y="220">
    <tspan x="880" y="220">Generates</tspan>
  </text>
  <g>
    <polyline style="fill: none; fill-opacity:0; stroke-width: 2; stroke-dasharray: 4; stroke: #000000" points="840,223.406 1040,223.406 1040,470.264 "/>
    <polygon style="fill: #000000" points="1040,477.764 1035,467.764 1040,470.264 1045,467.764 "/>
    <polygon style="fill: none; fill-opacity:0; stroke-width: 2; stroke: #000000" points="1040,477.764 1035,467.764 1040,470.264 1045,467.764 "/>
  </g>
</svg>
