<?xml version="1.0" encoding="UTF-8" standalone="no"?>
<!-- Generated by graphviz version 2.38.0 (20140413.2041)
 -->

<!-- Title: %3 Pages: 1 -->

<svg
   xmlns:dc="http://purl.org/dc/elements/1.1/"
   xmlns:cc="http://creativecommons.org/ns#"
   xmlns:rdf="http://www.w3.org/1999/02/22-rdf-syntax-ns#"
   xmlns:svg="http://www.w3.org/2000/svg"
   xmlns="http://www.w3.org/2000/svg"
   xmlns:sodipodi="http://sodipodi.sourceforge.net/DTD/sodipodi-0.dtd"
   xmlns:inkscape="http://www.inkscape.org/namespaces/inkscape"
   width="950pt"
   height="708pt"
   viewBox="0 0 949.80448 708"
   id="svg2"
   version="1.1"
   inkscape:version="0.91 r13725"
   sodipodi:docname="roadmap_img.svg">
  <metadata
     id="metadata244">
    <rdf:RDF>
      <cc:Work
         rdf:about="">
        <dc:format>image/svg+xml</dc:format>
        <dc:type
           rdf:resource="http://purl.org/dc/dcmitype/StillImage" />
        <dc:title></dc:title>
      </cc:Work>
    </rdf:RDF>
  </metadata>
  <defs
     id="defs242" />
  <sodipodi:namedview
     pagecolor="#ffffff"
     bordercolor="#666666"
     borderopacity="1"
     objecttolerance="10"
     gridtolerance="10"
     guidetolerance="10"
     inkscape:pageopacity="0"
     inkscape:pageshadow="2"
     inkscape:window-width="1270"
     inkscape:window-height="746"
     id="namedview240"
     showgrid="false"
     inkscape:zoom="1.0666667"
     inkscape:cx="853.87645"
     inkscape:cy="62.418953"
     inkscape:window-x="0"
     inkscape:window-y="0"
     inkscape:window-maximized="0"
     inkscape:current-layer="svg2" />
  <polygon
     style="fill:#ffffff;stroke:none"
     id="polygon7"
     points="-4,4 -4,4 -4,-704 822.828,-704 822.828,4 "
     transform="translate(4,704)" />
  <g
     class="cluster"
     id="clust1"
     transform="translate(4,704)">
    <title
       id="title10">cluster_coding</title>
    <polygon
       style="fill:none;stroke:#000000"
       id="polygon12"
       points="413,-284 413,-284 413,-506 777,-506 777,-284 " />
    <text
       style="font-size:14px;font-family:DaxlinePro;text-anchor:middle"
       id="text14"
       font-size="14.00"
       y="-490.79999"
       x="595">Programmierung</text>
  </g>
  <g
     class="cluster"
     id="clust2"
     transform="translate(4,704)">
    <title
       id="title17">cluster_writing</title>
    <polygon
       style="fill:none;stroke:#000000"
       id="polygon19"
       points="8,-65 8,-65 8,-655 405,-655 405,-65 " />
    <text
       style="font-size:14px;font-family:DaxlinePro;text-anchor:middle"
       id="text21"
       font-size="14.00"
       y="-639.79999"
       x="206.5">Ausarbeitung</text>
  </g>
  <g
     class="node"
     id="node1"
     transform="translate(4,704)">
    <title
       id="title24">start</title>
    <polygon
       style="fill:none;stroke:#000000"
       id="polygon26"
       points="182,-663.5 182,-663.5 182,-699.5 236,-699.5 236,-663.5 " />
    <text
       style="font-size:14px;font-family:DaxlinePro;text-anchor:middle"
       id="text28"
       font-size="14.00"
       y="-677.79999"
       x="209">Start</text>
  </g>
  <polygon
     points="167,-623.5 251,-623.5 251,-587.5 167,-587.5 167,-587.5 "
     id="polygon33"
     style="fill:none;stroke:#000000"
     transform="translate(4,704)" />
  <text
     x="213"
     y="102.20001"
     font-size="14.00"
     id="text35"
     style="font-size:14px;font-family:DaxlinePro;text-anchor:middle">Gliederung</text>
  <g
     class="edge"
     id="edge1"
     transform="translate(4,704)">
    <title
       id="title38">start-&gt;outline</title>
    <path
       style="fill:none;stroke:#000000"
       inkscape:connector-curvature="0"
       id="path40"
       d="m 209,-663.337 c 0,8.779 0,19.674 0,29.57" />
    <polygon
       style="fill:#000000;stroke:#000000"
       id="polygon42"
       points="209,-623.57 205.5,-633.57 212.5,-633.57 212.5,-633.57 " />
  </g>
  <g
     class="node"
     id="node2"
     transform="translate(4,704)">
    <title
       id="title45">submission</title>
    <polygon
       style="fill:none;stroke:#000000"
       id="polygon47"
       points="154,-0.5 154,-0.5 154,-36.5 218,-36.5 218,-0.5 " />
    <text
       style="font-size:14px;font-family:DaxlinePro;text-anchor:middle"
       id="text49"
       font-size="14.00"
       y="-14.8"
       x="186">Abgabe</text>
  </g>
  <g
     class="node"
     id="node3"
     transform="translate(4,704)">
    <title
       id="title52">grammar_world</title>
    <polygon
       style="fill:none;stroke:#000000"
       id="polygon54"
       points="649.5,-438.5 649.5,-438.5 649.5,-474.5 768.5,-474.5 768.5,-438.5 " />
    <text
       style="font-size:14px;font-family:DaxlinePro;text-anchor:middle"
       id="text56"
       font-size="14.00"
       y="-452.79999"
       x="709">Welt-Grammatik</text>
  </g>
  <g
     class="node"
     id="node5"
     transform="translate(4,704)">
    <title
       id="title59">interpreter_compiler</title>
    <polygon
       style="fill:none;stroke:#000000"
       id="polygon61"
       points="432.5,-365.5 432.5,-365.5 432.5,-401.5 577.5,-401.5 577.5,-365.5 " />
    <text
       style="font-size:14px;font-family:DaxlinePro;text-anchor:middle"
       id="text63"
       font-size="14.00"
       y="-379.79999"
       x="505">Interpreter/Compiler</text>
  </g>
  <g
     class="edge"
     id="edge11"
     transform="translate(4,704)">
    <title
       id="title66">grammar_world-&gt;interpreter_compiler</title>
    <path
       style="fill:none;stroke:#000000"
       inkscape:connector-curvature="0"
       id="path68"
       d="m 660.137,-438.494 c -28.931,10.069 -65.774,22.892 -96.296,33.515" />
    <polygon
       style="fill:#000000;stroke:#000000"
       id="polygon70"
       points="554.171,-401.614 562.465,-408.206 564.766,-401.595 564.766,-401.595 " />
  </g>
  <g
     class="node"
     id="node4"
     transform="translate(4,704)">
    <title
       id="title73">grammar_program</title>
    <polygon
       style="fill:none;stroke:#000000"
       id="polygon75"
       points="421,-438.5 421,-438.5 421,-474.5 577,-474.5 577,-438.5 " />
    <text
       style="font-size:14px;font-family:DaxlinePro;text-anchor:middle"
       id="text77"
       font-size="14.00"
       y="-452.79999"
       x="499">Programm-Grammatik</text>
  </g>
  <g
     class="edge"
     id="edge12"
     transform="translate(4,704)">
    <title
       id="title80">grammar_program-&gt;interpreter_compiler</title>
    <path
       style="fill:none;stroke:#000000"
       inkscape:connector-curvature="0"
       id="path82"
       d="m 500.452,-438.313 c 0.678,8.024 1.502,17.766 2.26,26.744" />
    <polygon
       style="fill:#000000;stroke:#000000"
       id="polygon84"
       points="503.561,-401.529 499.231,-411.199 506.206,-411.788 506.206,-411.788 " />
  </g>
  <g
     class="node"
     id="node7"
     transform="translate(4,704)">
    <title
       id="title87">execution</title>
    <polygon
       style="fill:none;stroke:#000000"
       id="polygon89"
       points="461,-292.5 461,-292.5 461,-328.5 549,-328.5 549,-292.5 " />
    <text
       style="font-size:14px;font-family:DaxlinePro;text-anchor:middle"
       id="text91"
       font-size="14.00"
       y="-306.79999"
       x="505">Ausführung</text>
  </g>
  <g
     class="edge"
     id="edge13"
     transform="translate(4,704)">
    <title
       id="title94">interpreter_compiler-&gt;execution</title>
    <path
       style="fill:none;stroke:#000000"
       inkscape:connector-curvature="0"
       id="path96"
       d="m 505,-365.313 c 0,8.024 0,17.766 0,26.744" />
    <polygon
       style="fill:#000000;stroke:#000000"
       id="polygon98"
       points="505,-328.529 501.5,-338.529 508.5,-338.529 508.5,-338.529 " />
  </g>
  <g
     class="node"
     id="node6"
     transform="translate(4,704)">
    <title
       id="title101">visualization</title>
    <polygon
       style="fill:none;stroke:#000000"
       id="polygon103"
       points="661,-365.5 661,-365.5 661,-401.5 763,-401.5 763,-365.5 " />
    <text
       style="font-size:14px;font-family:DaxlinePro;text-anchor:middle"
       id="text105"
       font-size="14.00"
       y="-379.79999"
       x="712">Visualisierung</text>
  </g>
  <g
     class="edge"
     id="edge14"
     transform="translate(4,704)">
    <title
       id="title108">visualization-&gt;execution</title>
    <path
       style="fill:none;stroke:#000000"
       inkscape:connector-curvature="0"
       id="path110"
       d="m 662.418,-365.494 c -31.217,10.708 -71.514,24.529 -103.522,35.508" />
    <polygon
       style="fill:#000000;stroke:#000000"
       id="polygon112"
       points="549.248,-326.677 557.571,-333.232 559.843,-326.611 559.843,-326.611 " />
  </g>
  <g
     class="node"
     id="node12"
     transform="translate(4,704)">
    <title
       id="title115">implementation</title>
    <polygon
       style="fill:none;stroke:#000000"
       id="polygon117"
       points="260.5,-219.5 260.5,-219.5 260.5,-255.5 383.5,-255.5 383.5,-219.5 " />
    <text
       style="font-size:14px;font-family:DaxlinePro;text-anchor:middle"
       id="text119"
       font-size="14.00"
       y="-233.8"
       x="322">Implementierung</text>
  </g>
  <g
     class="edge"
     id="edge15"
     transform="translate(4,704)">
    <title
       id="title122">execution-&gt;implementation</title>
    <path
       style="fill:none;stroke:#000000"
       inkscape:connector-curvature="0"
       id="path124"
       d="m 461.167,-292.494 c -25.728,9.982 -58.432,22.67 -85.671,33.239" />
    <polygon
       style="fill:#000000;stroke:#000000"
       id="polygon126"
       points="366.11,-255.614 374.167,-262.494 376.699,-255.968 376.699,-255.968 " />
  </g>
  <g
     class="node"
     id="node8"
     transform="translate(4,704)">
    <title
       id="title129">requirement_analysis</title>
    <polygon
       style="fill:none;stroke:#000000"
       id="polygon131"
       points="247.5,-514.5 247.5,-514.5 247.5,-550.5 396.5,-550.5 396.5,-514.5 " />
    <text
       style="font-size:14px;font-family:DaxlinePro;text-anchor:middle"
       id="text133"
       font-size="14.00"
       y="-528.79999"
       x="322">Anforderungsanalyse</text>
  </g>
  <g
     class="edge"
     id="edge9"
     transform="translate(4,704)">
    <title
       id="title136">requirement_analysis-&gt;grammar_world</title>
    <path
       style="fill:none;stroke:#000000"
       inkscape:connector-curvature="0"
       id="path138"
       d="m 396.597,-528.176 c 72.492,3.809 177.202,11.005 216.403,22.176 20.951,5.97 42.743,16.571 60.259,26.343" />
    <polygon
       style="fill:#000000;stroke:#000000"
       id="polygon140"
       points="682.002,-474.652 671.585,-476.583 675.063,-482.658 675.063,-482.658 " />
  </g>
  <g
     class="edge"
     id="edge10"
     transform="translate(4,704)">
    <title
       id="title143">requirement_analysis-&gt;grammar_program</title>
    <path
       style="fill:none;stroke:#000000"
       inkscape:connector-curvature="0"
       id="path145"
       d="m 393.776,-514.486 c 7.942,2.545 15.826,5.374 23.224,8.486 16.666,7.01 34.05,16.877 48.5,25.882" />
    <polygon
       style="fill:#000000;stroke:#000000"
       id="polygon147"
       points="474.086,-474.655 463.77,-477.07 467.528,-482.976 467.528,-482.976 " />
  </g>
  <g
     class="edge"
     id="edge8"
     transform="translate(4,704)">
    <title
       id="title150">requirement_analysis-&gt;visualization</title>
    <path
       style="fill:none;stroke:#000000"
       inkscape:connector-curvature="0"
       id="path152"
       d="m 396.674,-530.221 c 132.112,2.631 394.52,9.666 408.326,24.221 20.799,21.926 15.132,41.839 0,68 -7.727,13.359 -20.193,23.675 -33.522,31.518" />
    <polygon
       style="fill:#000000;stroke:#000000"
       id="polygon154"
       points="762.636,-401.678 769.752,-409.528 773.093,-403.377 773.093,-403.377 " />
  </g>
  <g
     class="node"
     id="node9"
     transform="translate(4,704)">
    <title
       id="title157">comparable_works</title>
    <polygon
       style="fill:none;stroke:#000000"
       id="polygon159"
       points="16.5,-514.5 16.5,-514.5 16.5,-550.5 175.5,-550.5 175.5,-514.5 " />
    <text
       style="font-size:14px;font-family:DaxlinePro;text-anchor:middle"
       id="text161"
       font-size="14.00"
       y="-528.79999"
       x="96">Vergleichbare Arbeiten</text>
  </g>
  <g
     class="edge"
     id="edge6"
     transform="translate(4,704)">
    <title
       id="title164">requirement_analysis-&gt;comparable_works</title>
    <path
       style="fill:none;stroke:#000000"
       inkscape:connector-curvature="0"
       id="path166"
       d="m 247.235,-520.214 c -20.436,1.699 -40.872,2.035 -61.308,1.011" />
    <polygon
       style="fill:#000000;stroke:#000000"
       id="polygon168"
       points="175.895,-519.816 186.089,-522.7 185.663,-515.713 185.663,-515.713 " />
  </g>
  <g
     class="edge"
     id="edge5"
     transform="translate(4,704)">
    <title
       id="title171">requirement_analysis-&gt;implementation</title>
    <path
       style="fill:none;stroke:#000000"
       inkscape:connector-curvature="0"
       id="path173"
       d="m 322,-514.481 c 0,48.752 0,189.225 0,248.777" />
    <polygon
       style="fill:#000000;stroke:#000000"
       id="polygon175"
       points="322,-255.566 318.5,-265.566 325.5,-265.566 325.5,-265.566 " />
  </g>
  <g
     class="edge"
     id="edge7"
     transform="translate(4,704)">
    <title
       id="title178">comparable_works-&gt;requirement_analysis</title>
    <path
       style="fill:none;stroke:#000000"
       inkscape:connector-curvature="0"
       id="path180"
       d="m 175.895,-545.184 c 20.436,-1.47 40.872,-1.579 61.308,-0.327" />
    <polygon
       style="fill:#000000;stroke:#000000"
       id="polygon182"
       points="247.235,-544.786 237.009,-542.016 237.513,-548.998 237.513,-548.998 " />
  </g>
  <g
     class="node"
     id="node11"
     transform="translate(4,704)">
    <title
       id="title185">introduction_conclusion</title>
    <polygon
       style="fill:none;stroke:#000000"
       id="polygon187"
       points="126,-73.5 126,-73.5 126,-109.5 246,-109.5 246,-73.5 " />
    <text
       style="font-size:14px;font-family:DaxlinePro;text-anchor:middle"
       id="text189"
       font-size="14.00"
       y="-87.800003"
       x="186">Einleitung / Fazit</text>
  </g>
  <g
     class="edge"
     id="edge4"
     transform="translate(4,704)">
    <title
       id="title192">comparable_works-&gt;introduction_conclusion</title>
    <path
       style="fill:none;stroke:#000000"
       inkscape:connector-curvature="0"
       id="path194"
       d="m 100.435,-514.436 c 6.683,27.26 18.565,82.406 18.565,129.936 0,0 0,0 0,148 0,44.786 26.97,90.708 46.688,118.296" />
    <polygon
       style="fill:#000000;stroke:#000000"
       id="polygon196"
       points="171.791,-109.916 163.043,-115.893 168.68,-120.043 168.68,-120.043 " />
  </g>
  <g
     class="edge"
     id="edge3"
     transform="translate(4,704)">
    <title
       id="title199">outline-&gt;requirement_analysis</title>
    <path
       style="fill:none;stroke:#000000"
       inkscape:connector-curvature="0"
       id="path201"
       d="m 236.066,-587.494 c 14.985,9.415 33.802,21.239 50.005,31.419" />
    <polygon
       style="fill:#000000;stroke:#000000"
       id="polygon203"
       points="294.763,-550.614 284.433,-552.97 288.158,-558.897 288.158,-558.897 " />
  </g>
  <g
     class="edge"
     id="edge2"
     transform="translate(4,704)">
    <title
       id="title206">outline-&gt;comparable_works</title>
    <path
       style="fill:none;stroke:#000000"
       inkscape:connector-curvature="0"
       id="path208"
       d="m 181.934,-587.494 c -14.985,9.415 -33.802,21.239 -50.005,31.419" />
    <polygon
       style="fill:#000000;stroke:#000000"
       id="polygon210"
       points="123.237,-550.614 129.842,-558.897 133.567,-552.97 133.567,-552.97 " />
  </g>
  <g
     class="edge"
     id="edge18"
     transform="translate(4,704)">
    <title
       id="title213">introduction_conclusion-&gt;submission</title>
    <path
       style="fill:none;stroke:#000000"
       inkscape:connector-curvature="0"
       id="path215"
       d="m 186,-73.3129 c 0,8.0234 0,17.7654 0,26.7438" />
    <polygon
       style="fill:#000000;stroke:#000000"
       id="polygon217"
       points="186,-36.5288 182.5,-46.5289 189.5,-46.5288 189.5,-46.5288 " />
  </g>
  <g
     class="node"
     id="node13"
     transform="translate(4,704)">
    <title
       id="title220">examples</title>
    <polygon
       style="fill:none;stroke:#000000"
       id="polygon222"
       points="237.5,-146.5 237.5,-146.5 237.5,-182.5 360.5,-182.5 360.5,-146.5 " />
    <text
       style="font-size:14px;font-family:DaxlinePro;text-anchor:middle"
       id="text224"
       font-size="14.00"
       y="-160.8"
       x="299">Beispielaufgaben</text>
  </g>
  <g
     class="edge"
     id="edge16"
     transform="translate(4,704)">
    <title
       id="title227">implementation-&gt;examples</title>
    <path
       style="fill:none;stroke:#000000"
       inkscape:connector-curvature="0"
       id="path229"
       d="m 316.432,-219.313 c -2.627,8.111 -5.823,17.977 -8.758,27.036" />
    <polygon
       style="fill:#000000;stroke:#000000"
       id="polygon231"
       points="304.516,-182.529 304.269,-193.121 310.928,-190.963 310.928,-190.963 " />
  </g>
  <g
     class="edge"
     id="edge17"
     transform="translate(4,704)">
    <title
       id="title234">examples-&gt;introduction_conclusion</title>
    <path
       style="fill:none;stroke:#000000"
       inkscape:connector-curvature="0"
       id="path236"
       d="m 271.934,-146.494 c -14.985,9.415 -33.802,21.239 -50.005,31.419" />
    <polygon
       style="fill:#000000;stroke:#000000"
       id="polygon238"
       points="213.237,-109.614 219.842,-117.897 223.567,-111.97 223.567,-111.97 " />
  </g>
  <g
     id="g4809">
    <text
       x="887.77875"
       y="128.83398"
       font-size="14.00"
       id="text4396"
       style="font-size:14px;font-family:DaxlinePro;text-anchor:middle">09.11.2018</text>
    <path
       sodipodi:nodetypes="cc"
       inkscape:connector-curvature="0"
       id="path4374"
       d="m 11.902246,132 908.000004,0"
       style="fill:none;fill-rule:evenodd;stroke:#000000;stroke-width:0.80000001px;stroke-linecap:butt;stroke-linejoin:miter;stroke-opacity:1" />
  </g>
  <g
     id="g4813"
     transform="translate(0,62.4)">
    <text
       style="font-size:14px;font-family:DaxlinePro;text-anchor:middle"
       id="text4815"
       font-size="14.00"
       y="128.83398"
       x="887.77875">14.12.2018</text>
    <path
       style="fill:none;fill-rule:evenodd;stroke:#000000;stroke-width:0.80000001px;stroke-linecap:butt;stroke-linejoin:miter;stroke-opacity:1"
       d="m 11.902246,132 908.000004,0"
       id="path4817"
       inkscape:connector-curvature="0"
       sodipodi:nodetypes="cc" />
  </g>
  <g
     transform="translate(0,366.4)"
     id="g4819">
    <text
       x="887.77875"
       y="128.83398"
       font-size="14.00"
       id="text4821"
       style="font-size:14px;font-family:DaxlinePro;text-anchor:middle">25.01.2019</text>
    <path
       sodipodi:nodetypes="cc"
       inkscape:connector-curvature="0"
       id="path4823"
       d="m 11.902246,132 908.000004,0"
       style="fill:none;fill-rule:evenodd;stroke:#000000;stroke-width:0.80000001px;stroke-linecap:butt;stroke-linejoin:miter;stroke-opacity:1" />
  </g>
  <g
     id="g4825"
     transform="translate(0,516.8)">
    <text
       style="font-size:14px;font-family:DaxlinePro;text-anchor:middle"
       id="text4827"
       font-size="14.00"
       y="128.83398"
       x="887.77875">06.02.2019</text>
    <path
       style="fill:none;fill-rule:evenodd;stroke:#000000;stroke-width:0.80000001px;stroke-linecap:butt;stroke-linejoin:miter;stroke-opacity:1"
       d="m 11.902246,132 908.000004,0"
       id="path4829"
       inkscape:connector-curvature="0"
       sodipodi:nodetypes="cc" />
  </g>
  <g
     transform="translate(0,574.4)"
     id="g4831">
    <text
       x="887.77875"
       y="128.83398"
       font-size="14.00"
       id="text4833"
       style="font-size:14px;font-family:DaxlinePro;text-anchor:middle">13.02.2019</text>
    <path
       sodipodi:nodetypes="cc"
       inkscape:connector-curvature="0"
       id="path4835"
       d="m 11.902246,132 908.000004,0"
       style="fill:none;fill-rule:evenodd;stroke:#000000;stroke-width:0.80000001px;stroke-linecap:butt;stroke-linejoin:miter;stroke-opacity:1" />
  </g>
</svg>
